<?xml version="1.0" encoding="utf-8"?>
<!-- Generator: Adobe Illustrator 15.0.0, SVG Export Plug-In . SVG Version: 6.00 Build 0)  -->
<!DOCTYPE svg PUBLIC "-//W3C//DTD SVG 1.1//EN" "http://www.w3.org/Graphics/SVG/1.1/DTD/svg11.dtd">
<svg version="1.1" id="レイヤー_1" xmlns="http://www.w3.org/2000/svg" xmlns:xlink="http://www.w3.org/1999/xlink" x="0px"
	 y="0px" width="851.533px" height="850.148px" viewBox="115.448 698 851.533 850.148"
	 enable-background="new 115.448 698 851.533 850.148" xml:space="preserve">
<title>SVG Picture created as 1005test1-brd.svg date 2019/10/06 19:56:53</title>
<desc>Picture generated by PCBNEW</desc>
<g transform="translate(0 0) scale(1 1)">
</g>
<g>
	<polygon fill="none" stroke="#FF0066" stroke-width="0.2835" stroke-linecap="round" stroke-linejoin="round" points="
		404.463,1373.425 368.49,1356.656 351.723,1392.621 387.646,1409.337 	"/>
	<polygon fill="none" stroke="#FF0066" stroke-width="0.2835" stroke-linecap="round" stroke-linejoin="round" points="
		357.875,1345.763 321.902,1328.994 305.135,1364.96 341.057,1381.675 	"/>
	<polygon fill="none" stroke="#FF0066" stroke-width="0.2835" stroke-linecap="round" stroke-linejoin="round" points="
		278.062,1388.929 242.09,1372.16 225.322,1408.125 261.245,1424.841 	"/>
	<polygon fill="none" stroke="#FF0066" stroke-width="0.2835" stroke-linecap="round" stroke-linejoin="round" points="
		334.982,1394.681 299.009,1377.912 282.241,1413.878 318.164,1430.593 	"/>
	<g>
		<path fill="none" stroke="#FF0066" stroke-width="0.2835" stroke-linecap="round" stroke-linejoin="round" d="M239.178,1250.726"
			/>
	</g>
	<g>
		<path fill="none" stroke="#FF0066" stroke-width="0.2835" stroke-linecap="round" stroke-linejoin="round" d="M488.29,1433.482"/>
		<path fill="none" stroke="#FF0066" stroke-width="0.2835" stroke-linecap="round" stroke-linejoin="round" d="M400.166,1510.666"
			/>
		<path fill="none" stroke="#FF0066" stroke-width="0.2835" stroke-linecap="round" stroke-linejoin="round" d="M658.931,1510.521"
			/>
		<path fill="none" stroke="#FF0066" stroke-width="0.2835" stroke-linecap="round" stroke-linejoin="round" d="M400.166,1510.666"
			/>
		<path fill="none" stroke="#FF0066" stroke-width="0.2835" stroke-linecap="round" stroke-linejoin="round" d="M170.773,1352.41"/>
		<path fill="none" stroke="#FF0066" stroke-width="0.2835" stroke-linecap="round" stroke-linejoin="round" d="M170.773,1352.41"/>
		<path fill="none" stroke="#FF0066" stroke-width="0.2835" stroke-linecap="round" stroke-linejoin="round" d="M591.111,1238.216"
			/>
		<path fill="none" stroke="#FF0066" stroke-width="0.2835" stroke-linecap="round" stroke-linejoin="round" d="M695.366,1214.025"
			/>
		<path fill="none" stroke="#FF0066" stroke-width="0.2835" stroke-linecap="round" stroke-linejoin="round" d="M591.111,1238.216"
			/>
	</g>
	
		<circle fill="none" stroke="#FF0066" stroke-width="0.2835" stroke-linecap="round" stroke-linejoin="round" cx="459.781" cy="1429.161" r="3.118"/>
	
		<circle fill="none" stroke="#FF0066" stroke-width="0.2835" stroke-linecap="round" stroke-linejoin="round" cx="320.39" cy="1486.329" r="3.118"/>
	
		<circle fill="none" stroke="#FF0066" stroke-width="0.2835" stroke-linecap="round" stroke-linejoin="round" cx="192.277" cy="1435.192" r="3.118"/>
	
		<circle fill="none" stroke="#FF0066" stroke-width="0.2835" stroke-linecap="round" stroke-linejoin="round" cx="220.069" cy="1247.127" r="3.118"/>
	
		<circle fill="none" stroke="#FF0066" stroke-width="0.2835" stroke-linecap="round" stroke-linejoin="round" cx="465.3" cy="1297.094" r="3.118"/>
	
		<circle fill="none" stroke="#FF0066" stroke-width="0.2835" stroke-linecap="round" stroke-linejoin="round" cx="594.368" cy="1297.256" r="3.118"/>
	
		<circle fill="none" stroke="#FF0066" stroke-width="0.2835" stroke-linecap="round" stroke-linejoin="round" cx="599.316" cy="1429.161" r="3.118"/>
	
		<circle fill="none" stroke="#FF0066" stroke-width="0.2835" stroke-linecap="round" stroke-linejoin="round" cx="838.787" cy="1246.282" r="3.118"/>
	
		<circle fill="none" stroke="#FF0066" stroke-width="0.2835" stroke-linecap="round" stroke-linejoin="round" cx="867.011" cy="1435.209" r="3.118"/>
	
		<circle fill="none" stroke="#FF0066" stroke-width="0.2835" stroke-linecap="round" stroke-linejoin="round" cx="742.847" cy="1485.897" r="3.118"/>
	<path fill="none" stroke="#FF0066" stroke-width="0.2835" stroke-linecap="round" stroke-linejoin="round" d="M233.082,1263.814"/>
	<path fill="none" stroke="#FF0066" stroke-width="0.2835" stroke-linecap="round" stroke-linejoin="round" d="M216.314,1299.777"/>
	<path fill="none" stroke="#FF0066" stroke-width="0.2835" stroke-linecap="round" stroke-linejoin="round" d="M255.948,1214.925"/>
	<path fill="none" stroke="#FF0066" stroke-width="0.2835" stroke-linecap="round" stroke-linejoin="round" d="M255.949,1214.927"/>
	<path fill="none" stroke="#FF0066" stroke-width="0.2835" stroke-linecap="round" stroke-linejoin="round" d="M239.18,1250.89"/>
	<path fill="none" stroke="#FF0066" stroke-width="0.2835" stroke-linecap="round" stroke-linejoin="round" d="M310.594,1225.544"/>
	<polygon fill="none" stroke="#FF0066" stroke-width="0.2835" stroke-linecap="round" stroke-linejoin="round" points="
		323.697,1291.074 287.724,1274.304 270.956,1310.269 306.879,1326.986 	"/>
	<path fill="none" stroke="#FF0066" stroke-width="0.2835" stroke-linecap="round" stroke-linejoin="round" d="M348.75,1297.105"/>
	<path fill="none" stroke="#FF0066" stroke-width="0.2835" stroke-linecap="round" stroke-linejoin="round" d="M329.594,1244.544"/>
	<polygon fill="none" stroke="#FF0066" stroke-width="0.2835" stroke-linecap="round" stroke-linejoin="round" points="
		300.878,1340.011 264.906,1323.242 248.138,1359.207 284.101,1375.99 	"/>
	<polygon fill="none" stroke="#FF0066" stroke-width="0.2835" stroke-linecap="round" stroke-linejoin="round" points="
		573.739,1327.601 609.711,1310.832 626.479,1346.796 590.556,1363.513 	"/>
	<polygon fill="none" stroke="#FF0066" stroke-width="0.2835" stroke-linecap="round" stroke-linejoin="round" points="
		596.575,1376.537 632.548,1359.767 649.316,1395.732 613.341,1412.507 	"/>
	<polygon fill="none" stroke="#FF0066" stroke-width="0.2835" stroke-linecap="round" stroke-linejoin="round" points="
		619.389,1425.482 655.362,1408.712 672.129,1444.677 636.155,1461.453 	"/>
	<polygon fill="none" stroke="#FF0066" stroke-width="0.2835" stroke-linecap="round" stroke-linejoin="round" points="
		642.216,1474.421 678.189,1457.652 694.956,1493.617 658.982,1510.392 	"/>
	<polygon fill="none" stroke="#FF0066" stroke-width="0.2835" stroke-linecap="round" stroke-linejoin="round" points="
		608.986,1275.402 644.958,1258.632 661.726,1294.597 625.803,1311.314 	"/>
	<polygon fill="none" stroke="#FF0066" stroke-width="0.2835" stroke-linecap="round" stroke-linejoin="round" points="
		631.823,1324.337 667.795,1307.568 684.563,1343.533 648.588,1360.308 	"/>
	<polygon fill="none" stroke="#FF0066" stroke-width="0.2835" stroke-linecap="round" stroke-linejoin="round" points="
		654.636,1373.283 690.609,1356.513 707.376,1392.478 671.402,1409.253 	"/>
	<polygon fill="none" stroke="#FF0066" stroke-width="0.2835" stroke-linecap="round" stroke-linejoin="round" points="
		677.463,1422.222 713.436,1405.453 730.203,1441.417 694.229,1458.193 	"/>
	<polygon fill="none" stroke="#FF0066" stroke-width="0.2835" stroke-linecap="round" stroke-linejoin="round" points="
		655.437,1247.216 691.409,1230.447 708.177,1266.412 672.254,1283.128 	"/>
	<polygon fill="none" stroke="#FF0066" stroke-width="0.2835" stroke-linecap="round" stroke-linejoin="round" points="
		678.274,1296.152 714.246,1279.382 731.014,1315.347 695.039,1332.123 	"/>
	<polygon fill="none" stroke="#FF0066" stroke-width="0.2835" stroke-linecap="round" stroke-linejoin="round" points="
		701.087,1345.097 737.06,1328.328 753.827,1364.292 717.853,1381.068 	"/>
	<polygon fill="none" stroke="#FF0066" stroke-width="0.2835" stroke-linecap="round" stroke-linejoin="round" points="
		723.914,1394.037 759.887,1377.267 776.655,1413.232 740.68,1430.007 	"/>
	<polygon fill="none" stroke="#FF0066" stroke-width="0.2835" stroke-linecap="round" stroke-linejoin="round" points="
		712.357,1241.515 748.329,1224.746 765.097,1260.71 729.174,1277.427 	"/>
	<polygon fill="none" stroke="#FF0066" stroke-width="0.2835" stroke-linecap="round" stroke-linejoin="round" points="
		735.194,1290.451 771.166,1273.681 787.934,1309.646 751.959,1326.421 	"/>
	
		<rect x="764.719" y="1329.616" transform="matrix(-0.9064 0.4225 -0.4225 -0.9064 2065.8279 2241.0505)" fill="none" stroke="#FF0066" stroke-width="0.2835" stroke-linecap="round" stroke-linejoin="round" width="39.689" height="39.683"/>
	
		<rect x="787.546" y="1378.583" transform="matrix(-0.9064 0.4225 -0.4225 -0.9064 2130.0337 2324.7537)" fill="none" stroke="#FF0066" stroke-width="0.2835" stroke-linecap="round" stroke-linejoin="round" width="39.689" height="39.683"/>
	<polygon fill="none" stroke="#FF0066" stroke-width="0.2835" stroke-linecap="round" stroke-linejoin="round" points="
		767.012,1230.923 802.985,1214.154 819.752,1250.121 783.829,1266.835 	"/>
	
		<rect x="796.374" y="1269.616" transform="matrix(-0.9064 0.4225 -0.4225 -0.9064 2100.8228 2113.2944)" fill="none" stroke="#FF0066" stroke-width="0.2835" stroke-linecap="round" stroke-linejoin="round" width="39.689" height="39.683"/>
	
		<rect x="819.146" y="1318.563" transform="matrix(-0.9064 0.4225 -0.4225 -0.9064 2164.9146 2196.9839)" fill="none" stroke="#FF0066" stroke-width="0.2835" stroke-linecap="round" stroke-linejoin="round" width="39.689" height="39.683"/>
	<polygon fill="none" stroke="#FF0066" stroke-width="0.2835" stroke-linecap="round" stroke-linejoin="round" points="
		835.448,1377.744 871.42,1360.974 888.188,1396.939 852.213,1413.714 	"/>
	
		<rect x="582.669" y="1450.278" transform="matrix(0.4225 0.9064 -0.9064 0.4225 1680.3888 302.8756)" fill="none" stroke="#FF0066" stroke-width="0.2835" stroke-linecap="round" stroke-linejoin="round" width="39.689" height="39.682"/>
	<polygon fill="none" stroke="#FF0066" stroke-width="0.2835" stroke-linecap="round" stroke-linejoin="round" points="
		416.889,1474.55 380.916,1457.781 364.149,1493.746 400.122,1510.521 	"/>
	
		<rect x="393.491" y="1415.378" transform="matrix(0.9064 0.4225 -0.4225 0.9064 645.1143 -40.2396)" fill="none" stroke="#FF0066" stroke-width="0.2835" stroke-linecap="round" stroke-linejoin="round" width="39.689" height="39.682"/>
	
		<rect x="334.41" y="1286.526" transform="matrix(0.9064 0.4225 -0.4225 0.9064 585.1394 -27.3436)" fill="none" stroke="#FF0066" stroke-width="0.2835" stroke-linecap="round" stroke-linejoin="round" width="39.689" height="39.682"/>
	<polygon fill="none" stroke="#FF0066" stroke-width="0.2835" stroke-linecap="round" stroke-linejoin="round" points="
		427.288,1324.486 391.316,1307.716 374.548,1343.683 410.512,1360.451 	"/>
	<polygon fill="none" stroke="#FF0066" stroke-width="0.2835" stroke-linecap="round" stroke-linejoin="round" points="
		403.511,1247.751 367.538,1230.982 350.771,1266.947 386.737,1283.771 	"/>
	<polygon fill="none" stroke="#FF0066" stroke-width="0.2835" stroke-linecap="round" stroke-linejoin="round" points="
		381.645,1422.365 345.672,1405.595 328.905,1441.56 364.871,1458.335 	"/>
	<polygon fill="none" stroke="#FF0066" stroke-width="0.2835" stroke-linecap="round" stroke-linejoin="round" points="
		450.105,1275.542 414.132,1258.773 397.365,1294.738 433.333,1311.505 	"/>
	<polygon fill="none" stroke="#FF0066" stroke-width="0.2835" stroke-linecap="round" stroke-linejoin="round" points="
		485.349,1327.728 449.377,1310.958 432.609,1346.923 468.577,1363.699 	"/>
	<polygon fill="none" stroke="#FF0066" stroke-width="0.2835" stroke-linecap="round" stroke-linejoin="round" points="
		462.546,1376.666 426.573,1359.896 409.806,1395.861 445.763,1412.638 	"/>
	<polygon fill="none" stroke="#FF0066" stroke-width="0.2835" stroke-linecap="round" stroke-linejoin="round" points="
		447.026,1443.896 430.257,1479.869 466.222,1496.636 482.989,1460.759 	"/>
	<polygon fill="none" stroke="#FF0066" stroke-width="0.2835" stroke-linecap="round" stroke-linejoin="round" points="
		223.377,1457.572 183.688,1457.574 183.69,1497.257 223.362,1497.23 	"/>
	<polygon fill="none" stroke="#FF0066" stroke-width="0.2835" stroke-linecap="round" stroke-linejoin="round" points="
		297.101,1457.56 257.411,1457.562 257.413,1497.246 297.091,1497.23 	"/>
	<polygon fill="none" stroke="#FF0066" stroke-width="0.2835" stroke-linecap="round" stroke-linejoin="round" points="
		801.978,1457.716 762.288,1457.718 762.29,1497.402 801.962,1497.375 	"/>
	<polygon fill="none" stroke="#FF0066" stroke-width="0.2835" stroke-linecap="round" stroke-linejoin="round" points="
		876.23,1457.703 836.54,1457.707 836.542,1497.388 876.22,1497.373 	"/>
	<polygon fill="none" stroke="#FF0066" stroke-width="0.2835" stroke-linecap="round" stroke-linejoin="round" points="
		223.368,1378.371 187.395,1361.601 170.628,1397.566 206.585,1414.343 	"/>
	<polygon fill="none" stroke="#FF0066" stroke-width="0.2835" stroke-linecap="round" stroke-linejoin="round" points="
		246.368,1329.371 210.395,1312.601 193.628,1348.566 229.585,1365.343 	"/>
	<polygon fill="none" stroke="#FF0066" stroke-width="0.2835" stroke-linecap="round" stroke-linejoin="round" points="
		269.052,1280.488 233.079,1263.718 216.312,1299.685 252.269,1316.46 	"/>
	<polygon fill="none" stroke="#FF0066" stroke-width="0.2835" stroke-linecap="round" stroke-linejoin="round" points="
		291.984,1231.601 256.011,1214.832 239.244,1250.796 275.201,1267.574 	"/>
	<polygon fill="none" stroke="#FF0066" stroke-width="0.2835" stroke-linecap="round" stroke-linejoin="round" points="
		346.564,1242.22 310.591,1225.451 293.823,1261.416 329.781,1278.193 	"/>
	<g>
		<path fill="none" stroke="#FF0066" stroke-width="0.2835" stroke-linecap="round" stroke-linejoin="round" d="M326.401,1205.503
			l140.911,32.596h0.002l30.496,0.262v93.746l-15.556,37.297l15.123,11.23l-0.002-0.002l-13.823,31.537h-0.001l11.28,7.236
			l-14.16,30.492l14.979,10.08h-0.001l-14.832,32.543l28.367,12.672l14.257-32.832h-0.002l-13.536-9.359h-0.001l13.968-31.248
			l-11.375-7.633v-0.002l14.256-33.693h-0.002l-13.536-9.936c0,0,13.709-31.967,13.776-32.141c1.404-3.646,6.451-5.133,8.977,0.17
			l14.258,32.979l-14.689,8.783h0.002l14.254,33.553h0.002l-13.969,7.92l13.969,31.969l-16.086,8.641l14.791,33.121l28.077-12.674
			l-14.544-32.545l16.993-9.646l0,0l-13.824-29.664l14.111-8.928l0,0l-15.555-33.408l13.971-9.215l-16.704-36.723v-54h11.81
			l18.656-40.695l140.318-32.439h112.813h-0.002l56.689,191.428h-0.004l-13.369,107.813h0.002l-229.395,17.195l-258.767,0.145
			l-0.194-0.012l-229.053-17.473l-12.909-107.051l12.909-45.674l40.934-146.305L326.401,1205.503z"/>
	</g>
</g>
<path fill="none" stroke="#000000" stroke-width="0.2835" stroke-linecap="round" stroke-linejoin="round" d="M879.741,1512.111"/>
<path fill="none" stroke="#FF0066" stroke-width="0.2835" stroke-linecap="round" stroke-linejoin="round" d="M731.809,1205.546"/>
<path fill="none" stroke="#000000" stroke-width="0.2835" stroke-linecap="round" stroke-linejoin="round" d="M861.934,1531.992"/>
<path fill="none" stroke="#FF0066" stroke-width="0.2835" stroke-linecap="round" stroke-linejoin="round" d="M572.385,1317.949"/>
<path fill="none" stroke="#FF0066" stroke-width="0.2835" stroke-linecap="round" stroke-linejoin="round" d="M488.53,1317.736"/>
<g>
	<g>
		<path fill="none" stroke="#FF0066" stroke-width="0.2835" stroke-linecap="round" stroke-linejoin="round" d="M695.689,1135.784
			c1.721,0.085,3.182-1.241,3.267-2.963c0.081-1.723-1.242-3.183-2.963-3.264c-1.723-0.082-3.181,1.242-3.267,2.962
			C692.645,1134.242,693.969,1135.701,695.689,1135.784z"/>
		<path fill="none" stroke="#FF0066" stroke-width="0.2835" stroke-linecap="round" stroke-linejoin="round" d="M885.766,1116.755
			c1.716,0.081,3.18-1.242,3.264-2.962c0.08-1.721-1.242-3.184-2.961-3.267c-1.721-0.083-3.185,1.242-3.27,2.963
			C882.719,1115.21,884.045,1116.67,885.766,1116.755z"/>
		<path fill="none" stroke="#FF0066" stroke-width="0.2835" stroke-linecap="round" stroke-linejoin="round" d="M956.423,1096.113"
			/>
		<path fill="none" stroke="#FF0066" stroke-width="0.2835" stroke-linecap="round" stroke-linejoin="round" d="M959.904,1233.571
			l-2.948-117.302c-0.28-10.719-8.897-21.226-20.791-23.672l-86.776-15.066l-181.624,44.332
			c-16.527,5.473-12.437,29.753-12.437,29.753c2.699,13.286,14.135,18.271,30.898,14.966c20.549-3.19,184.553-1.145,184.553-1.145
			c10.02,2.326,17.706,0.08,21.248,12.999l12.878,54.785c5.922,19.753,20.246,25.576,28.895,25.995
			C942.45,1259.637,959.67,1255.52,959.904,1233.571z"/>
	</g>
	<path fill="none" stroke="#FF0066" stroke-width="0.2835" stroke-linecap="round" stroke-linejoin="round" d="M927.154,1238.183
		c0.219-4.777,6.044-4.015,6.331-0.906l0.511,9.007l-0.056,0.718c0.271,3.525-5.725,3.952-6.068,0.009L927.154,1238.183"/>
</g>
<g>
	<g>
		<path fill="none" stroke="#FF0066" stroke-width="0.2835" stroke-linecap="round" stroke-linejoin="round" d="M392.053,1133.103
			c-1.722,0.008-3.122-1.384-3.13-3.106c-0.003-1.724,1.386-3.124,3.109-3.128c1.725-0.004,3.121,1.386,3.129,3.106
			C395.165,1131.7,393.775,1133.097,392.053,1133.103z"/>
		<path fill="none" stroke="#FF0066" stroke-width="0.2835" stroke-linecap="round" stroke-linejoin="round" d="M203.027,1105.534
			c-1.718,0.003-3.121-1.385-3.127-3.107c-0.002-1.723,1.385-3.124,3.104-3.13c1.725-0.004,3.126,1.385,3.134,3.108
			C206.14,1104.126,204.749,1105.525,203.027,1105.534z"/>
		<path fill="none" stroke="#FF0066" stroke-width="0.2835" stroke-linecap="round" stroke-linejoin="round" d="M133.371,1081.73"/>
		<path fill="none" stroke="#FF0066" stroke-width="0.2835" stroke-linecap="round" stroke-linejoin="round" d="M123.703,1218.891
			l8.229-117.05c0.764-10.695,9.843-20.802,21.835-22.712l87.367-11.144l179.441,52.469c16.268,6.212,11.087,30.283,11.087,30.283
			c-3.296,13.151-14.946,17.616-31.543,13.559c-20.385-4.112-184.313-9.455-184.313-9.455c-10.113,1.872-17.69-0.718-21.811,12.028
			l-15.333,54.149c-6.806,19.469-21.378,24.638-30.036,24.667C139.966,1245.716,122.947,1240.829,123.703,1218.891z"/>
	</g>
	<path fill="none" stroke="#FF0066" stroke-width="0.2835" stroke-linecap="round" stroke-linejoin="round" d="M156.211,1224.972
		c-0.004-4.781-5.858-4.28-6.283-1.188l-0.917,8.974l0.025,0.72c-0.431,3.508,5.538,4.204,6.062,0.282L156.211,1224.972"/>
</g>
<g>
	<path fill="none" stroke="#FF0066" stroke-width="0.2835" stroke-linecap="round" stroke-linejoin="round" d="M523.468,1275.472
		c1.122-1.308,3.09-1.457,4.397-0.341c1.308,1.12,1.459,3.087,0.341,4.394c-1.121,1.311-3.084,1.463-4.396,0.344
		C522.505,1278.749,522.351,1276.782,523.468,1275.472z"/>
	<path fill="none" stroke="#FF0066" stroke-width="0.2835" stroke-linecap="round" stroke-linejoin="round" d="M614.24,1169.403
		c1.116-1.308,3.083-1.461,4.392-0.34c1.308,1.118,1.464,3.085,0.341,4.393c-1.116,1.308-3.085,1.461-4.396,0.342
		C613.273,1172.678,613.118,1170.71,614.24,1169.403z"/>
	<path fill="none" stroke="#FF0066" stroke-width="0.2835" stroke-linecap="round" stroke-linejoin="round" d="M510.768,1087.445
		c1.118-1.31,3.085-1.461,4.392-0.343c1.31,1.119,1.459,3.088,0.345,4.394c-1.123,1.307-3.086,1.462-4.396,0.343
		C509.799,1090.718,509.649,1088.753,510.768,1087.445z"/>
	<path fill="none" stroke="#FF0066" stroke-width="0.2835" stroke-linecap="round" stroke-linejoin="round" d="M426.856,1185.504
		c1.12-1.309,3.085-1.462,4.394-0.344c1.308,1.12,1.46,3.083,0.342,4.395c-1.121,1.306-3.087,1.462-4.396,0.342
		C425.887,1188.779,425.735,1186.813,426.856,1185.504z"/>
	<path fill="none" stroke="#FF0066" stroke-width="0.2835" stroke-linecap="round" stroke-linejoin="round" d="M493.69,1159.561
		l-26.783-4.125c-6.696-1.166-9.79-0.357-13.959,1.378l-29.547,13.174c-8.978,3.123-15.107,13.232-11.548,23.686
		c4.497,10.795,15.839,14.702,24.186,10.905l27.721-12.229l43.154,6.888l15.191,45.716l-13.057,24.922
		c-5.205,11.754,2.638,23.29,12.564,25.564c12.655,1.97,18.403-4.645,22.887-14.008l14.534-27.571
		c2.043-5.269,1.977-8.965-0.994-17.741l-10.084-30.268l34.452,5.543c9.17,1.318,11.891,0.573,16.7-2.402l24.487-19.516
		c8.386-6.123,14.002-13.328,9.752-25.407c-4.053-9.344-16.824-14.948-27.428-7.681l-22.428,17.521l-47.998-7.643l-14.132-41.928
		l9.548-30.175c2.561-9.857-3.346-19.91-13.204-22.47c-9.859-2.561-19.911,3.348-22.469,13.204l-11.546,34.184
		c-0.812,2.16-1.485,6.792,1.162,13.737L493.69,1159.561z"/>
</g>
<path fill="none" stroke="#FF0066" stroke-width="0.2835" stroke-linecap="round" stroke-linejoin="round" d="M207.332,1441.046"/>
<path fill="none" stroke="#FF0066" stroke-width="0.2835" stroke-linecap="round" stroke-linejoin="round" d="M315.517,1479.878"/>
<path fill="none" stroke="#FF0066" stroke-width="0.2835" stroke-linecap="round" stroke-linejoin="round" d="M306.534,1486.328"/>
<g>
	<g>
		<g>
			<path fill="none" stroke="#FF3300" stroke-width="0.2835" stroke-linecap="round" stroke-linejoin="round" d="M576.899,978.386"
				/>
			<path fill="none" stroke="#FF3300" stroke-width="0.2835" stroke-linecap="round" stroke-linejoin="round" d="M894.416,897.314"
				/>
			<path fill="none" stroke="#FF3300" stroke-width="0.2835" stroke-linecap="round" stroke-linejoin="round" d="M894.416,897.314"
				/>
			<path fill="none" stroke="#FF3300" stroke-width="0.2835" stroke-linecap="round" stroke-linejoin="round" d="M474.08,783.121"/>
			<path fill="none" stroke="#FF3300" stroke-width="0.2835" stroke-linecap="round" stroke-linejoin="round" d="M369.824,758.928"
				/>
			<path fill="none" stroke="#FF3300" stroke-width="0.2835" stroke-linecap="round" stroke-linejoin="round" d="M474.08,783.121"/>
		</g>
		
			<circle fill="none" stroke="#FF3300" stroke-width="0.2835" stroke-linecap="round" stroke-linejoin="round" cx="605.408" cy="974.065" r="3.118"/>
		
			<circle fill="none" stroke="#FF3300" stroke-width="0.2835" stroke-linecap="round" stroke-linejoin="round" cx="872.912" cy="980.096" r="3.118"/>
		
			<circle fill="none" stroke="#FF3300" stroke-width="0.2835" stroke-linecap="round" stroke-linejoin="round" cx="845.121" cy="792.032" r="3.118"/>
		
			<circle fill="none" stroke="#FF3300" stroke-width="0.2835" stroke-linecap="round" stroke-linejoin="round" cx="599.889" cy="842" r="3.118"/>
		
			<circle fill="none" stroke="#FF3300" stroke-width="0.2835" stroke-linecap="round" stroke-linejoin="round" cx="470.823" cy="842.161" r="3.118"/>
		
			<circle fill="none" stroke="#FF3300" stroke-width="0.2835" stroke-linecap="round" stroke-linejoin="round" cx="465.874" cy="974.065" r="3.118"/>
		
			<circle fill="none" stroke="#FF3300" stroke-width="0.2835" stroke-linecap="round" stroke-linejoin="round" cx="226.403" cy="791.186" r="3.118"/>
		
			<circle fill="none" stroke="#FF3300" stroke-width="0.2835" stroke-linecap="round" stroke-linejoin="round" cx="198.179" cy="980.114" r="3.118"/>
		<g>
			<path fill="none" stroke="#FF3300" stroke-width="0.2835" stroke-linecap="round" stroke-linejoin="round" d="M623.49,1067.007
				l41.637,0.023"/>
			<path fill="none" stroke="#FF3300" stroke-width="0.2835" stroke-linecap="round" stroke-linejoin="round" d="M620.836,1067.006
				l2.654,0.001"/>
			<path fill="none" stroke="#FF3300" stroke-width="0.2835" stroke-linecap="round" stroke-linejoin="round" d="M665.127,1067.031
				h0.285l0.195-0.012l229.053-17.473l12.908-107.05l-12.908-45.674L853.727,750.52l-114.939-0.109l-140.91,32.593h-0.002
				l-124.176-0.113l-140.318-32.439H220.569h0.002l-56.689,191.428h0.004l13.369,107.812h-0.002l229.395,17.195l126.662,0.072
				l87.543,0.049"/>
		</g>
		<path fill="none" stroke="#FF3300" stroke-width="0.2835" stroke-linecap="round" stroke-linejoin="round" d="M177.263,1048.679"
			/>
		<path fill="none" stroke="#FF3300" stroke-width="0.2835" stroke-linecap="round" stroke-linejoin="round" d="M333.391,749.44"/>
	</g>
	<path d="M614.342,955.381c-0.035,0-0.066,0.006-0.102,0.008c-0.01,0.013-0.023,0.021-0.033,0.034c0.018,0,0.037-0.001,0.055-0.001
		C614.289,955.408,614.317,955.395,614.342,955.381z"/>
	<path d="M537.229,1066.251"/>
	<line fill="none" x1="533.461" y1="1067.986" x2="533.791" y2="1066.958"/>
	<line fill="none" x1="536.399" y1="1066.958" x2="536.399" y2="1066.958"/>
	<path fill="none" stroke="#FF3300" stroke-width="0.2835" stroke-linecap="round" stroke-linejoin="round" d="M744.573,1034.617
		l6.718-0.731c4.375-0.468,3.765-6.821-1.254-6.446l-6.196,0.586C739.235,1028.564,739.891,1035.142,744.573,1034.617z"/>
	<path fill="none" stroke="#FF3300" stroke-width="0.2835" stroke-linecap="round" stroke-linejoin="round" d="M320.424,1034.084
		l6.725,0.666c4.377,0.439,5.086-5.903,0.098-6.567l-6.185-0.701C316.444,1027.064,315.733,1033.637,320.424,1034.084z"/>
</g>
</svg>
